<svg width="20" height="24" viewBox="0 0 20 24" fill="none" xmlns="http://www.w3.org/2000/svg">
<path d="M11.9908 3.20954C12.1242 2.58703 11.6497 2.00001 11.013 2.00001H7.78078C7.32191 2.00001 6.92193 2.3123 6.81063 2.75747L4.31063 12.7575C4.15285 13.3886 4.63021 14 5.28078 14H7.5C8.05228 14 8.5 14.4477 8.5 15V22L15.1348 10.4997C15.5194 9.83306 15.0382 9.00001 14.2686 9.00001H11.987C11.3503 9.00001 10.8758 8.41299 11.0092 7.79048L11.9908 3.20954Z" fill="white"/>
<path d="M11.9908 3.20954C12.1242 2.58703 11.6497 2.00001 11.013 2.00001H7.78078C7.32191 2.00001 6.92193 2.3123 6.81063 2.75747L4.31063 12.7575C4.15285 13.3886 4.63021 14 5.28078 14H7.5C8.05228 14 8.5 14.4477 8.5 15V22L15.1348 10.4997C15.5194 9.83306 15.0382 9.00001 14.2686 9.00001H11.987C11.3503 9.00001 10.8758 8.41299 11.0092 7.79048L11.9908 3.20954Z" fill="url(#paint0_linear_1796_64)"/>
<defs>
<linearGradient id="paint0_linear_1796_64" x1="10" y1="2.00001" x2="10" y2="22" gradientUnits="userSpaceOnUse">
<stop stop-color="#FF0000"/>
<stop offset="1" stop-color="#FFD600"/>
</linearGradient>
</defs>
</svg>
