<svg width="12" height="20" viewBox="0 0 12 20" fill="none" xmlns="http://www.w3.org/2000/svg">
<path d="M7.99082 1.20953C8.12421 0.587018 7.64966 0 7.01301 0H3.78078C3.32191 0 2.92193 0.312297 2.81063 0.757464L0.310634 10.7575C0.152847 11.3886 0.630205 12 1.28078 12H3.5C4.05228 12 4.5 12.4477 4.5 13V20L11.1348 8.49972C11.5194 7.83306 11.0382 7 10.2686 7H7.98699C7.35034 7 6.87579 6.41298 7.00918 5.79047L7.99082 1.20953Z" fill="white"/>
<path d="M7.99082 1.20953C8.12421 0.587018 7.64966 0 7.01301 0H3.78078C3.32191 0 2.92193 0.312297 2.81063 0.757464L0.310634 10.7575C0.152847 11.3886 0.630205 12 1.28078 12H3.5C4.05228 12 4.5 12.4477 4.5 13V20L11.1348 8.49972C11.5194 7.83306 11.0382 7 10.2686 7H7.98699C7.35034 7 6.87579 6.41298 7.00918 5.79047L7.99082 1.20953Z" fill="url(#paint0_linear_1865_230)"/>
<defs>
<linearGradient id="paint0_linear_1865_230" x1="6" y1="0" x2="6" y2="20" gradientUnits="userSpaceOnUse">
<stop stop-color="#0568FC"/>
<stop offset="1" stop-color="#FA00FF"/>
</linearGradient>
</defs>
</svg>
