<svg width="28" height="27" viewBox="0 0 28 27" fill="none" xmlns="http://www.w3.org/2000/svg">
<path d="M20.5611 24.8128H7.4388C5.03304 24.8128 3.0647 22.8445 3.0647 20.4387V9.5035C3.0647 7.09774 5.03304 5.12939 7.4388 5.12939H20.5611C22.9669 5.12939 24.9352 7.09774 24.9352 9.5035V20.4387C24.9352 22.8445 22.9669 24.8128 20.5611 24.8128Z" stroke="#696C75" stroke-width="2" stroke-miterlimit="10" stroke-linecap="round" stroke-linejoin="round"/>
<path d="M19.4677 2.9425V7.31661" stroke="#696C75" stroke-width="2" stroke-miterlimit="10" stroke-linecap="round" stroke-linejoin="round"/>
<path d="M8.53235 2.9425V7.31661" stroke="#696C75" stroke-width="2" stroke-miterlimit="10" stroke-linecap="round" stroke-linejoin="round"/>
<path d="M8.53237 13.8776C9.13631 13.8776 9.62589 13.388 9.62589 12.7841C9.62589 12.1801 9.13631 11.6906 8.53237 11.6906C7.92843 11.6906 7.43884 12.1801 7.43884 12.7841C7.43884 13.388 7.92843 13.8776 8.53237 13.8776Z" fill="#696C75"/>
<path d="M19.4675 13.8776C20.0715 13.8776 20.5611 13.388 20.5611 12.7841C20.5611 12.1801 20.0715 11.6906 19.4675 11.6906C18.8636 11.6906 18.374 12.1801 18.374 12.7841C18.374 13.388 18.8636 13.8776 19.4675 13.8776Z" fill="#696C75"/>
<path d="M14 13.8776C14.604 13.8776 15.0935 13.388 15.0935 12.7841C15.0935 12.1801 14.604 11.6906 14 11.6906C13.3961 11.6906 12.9065 12.1801 12.9065 12.7841C12.9065 13.388 13.3961 13.8776 14 13.8776Z" fill="#696C75"/>
<path d="M8.53237 19.3454C9.13631 19.3454 9.62589 18.8558 9.62589 18.2519C9.62589 17.6479 9.13631 17.1583 8.53237 17.1583C7.92843 17.1583 7.43884 17.6479 7.43884 18.2519C7.43884 18.8558 7.92843 19.3454 8.53237 19.3454Z" fill="#696C75"/>
<path d="M19.4675 19.3454C20.0715 19.3454 20.5611 18.8558 20.5611 18.2519C20.5611 17.6479 20.0715 17.1583 19.4675 17.1583C18.8636 17.1583 18.374 17.6479 18.374 18.2519C18.374 18.8558 18.8636 19.3454 19.4675 19.3454Z" fill="#696C75"/>
<path d="M14 19.3454C14.604 19.3454 15.0935 18.8558 15.0935 18.2519C15.0935 17.6479 14.604 17.1583 14 17.1583C13.3961 17.1583 12.9065 17.6479 12.9065 18.2519C12.9065 18.8558 13.3961 19.3454 14 19.3454Z" fill="#696C75"/>
</svg>
