<svg width="32" height="32" viewBox="0 0 32 32" fill="none" xmlns="http://www.w3.org/2000/svg">
<g clip-path="url(#clip0_39_86)">
<path d="M0.271006 11.557C0.186983 11.6154 0.118412 11.6933 0.0712014 11.7841C0.023991 11.8748 -0.000442568 11.9757 6.06835e-06 12.078V12.083C6.06835e-06 12.172 0.0210061 12.255 0.0520061 12.338L3.12001 19.276C3.18558 19.4241 3.30441 19.5422 3.45296 19.6069C3.6015 19.6715 3.76891 19.678 3.92201 19.625C5.92701 18.906 12.87 16.646 17.365 17.865C17.365 17.865 12.855 18.125 8.78201 21.323C8.67108 21.4111 8.59212 21.5331 8.55726 21.6704C8.52239 21.8077 8.53355 21.9527 8.58901 22.083L9.96401 25.187L10.49 26.421C10.5178 26.4883 10.5634 26.5466 10.622 26.5898C10.6806 26.6329 10.7499 26.6591 10.8224 26.6656C10.8949 26.6721 10.9677 26.6586 11.0331 26.6266C11.0984 26.5946 11.1537 26.5453 11.193 26.484C12.146 25.052 13.75 24.338 15.292 23.713C16.8709 23.0673 18.5162 22.5974 20.198 22.312C21.9903 22.0086 23.8138 21.9334 25.625 22.088C25.7702 22.1022 25.9158 22.0658 26.0373 21.9851C26.1588 21.9044 26.2488 21.7843 26.292 21.645L27.677 17.218C27.7176 17.0912 27.7168 16.9547 27.6747 16.8283C27.6327 16.702 27.5515 16.5922 27.443 16.515C25.901 15.395 19.787 11.64 9.04201 13.15C9.04201 13.15 18.209 7.87901 29.855 13.671C29.9382 13.7117 30.0292 13.7339 30.1218 13.7362C30.2143 13.7385 30.3063 13.7207 30.3914 13.6842C30.4765 13.6476 30.5526 13.5931 30.6147 13.5244C30.6768 13.4557 30.7233 13.3744 30.751 13.286L31.97 9.38501C31.9909 9.32662 32.0014 9.26502 32.001 9.20301V9.18201C31.9986 9.07079 31.9676 8.96207 31.911 8.86629C31.8544 8.7705 31.7742 8.69086 31.678 8.63501C30.214 7.81201 25.267 5.33301 18.464 5.33301C13.245 5.33301 6.93801 6.78601 0.271006 11.557V11.557Z" fill="#DA2C36"/>
</g>
<defs>
<clipPath id="clip0_39_86">
<rect width="32" height="32" fill="white"/>
</clipPath>
</defs>
</svg>
