<svg width="26" height="26" viewBox="0 0 26 26" fill="none" xmlns="http://www.w3.org/2000/svg">
<path d="M18.2406 4.875C18.8322 4.8745 19.4179 4.99211 19.9634 5.22092C20.5089 5.44973 21.0033 5.78515 21.4175 6.2075C22.271 7.07394 22.7494 8.24132 22.7494 9.4575C22.7494 10.6737 22.271 11.8411 21.4175 12.7075L13 21.2306L4.5825 12.7075C3.72904 11.8411 3.25064 10.6737 3.25064 9.4575C3.25064 8.24132 3.72904 7.07394 4.5825 6.2075C4.99695 5.78545 5.49134 5.45021 6.0368 5.22136C6.58226 4.99252 7.16785 4.87465 7.75938 4.87465C8.3509 4.87465 8.93649 4.99252 9.48195 5.22136C10.0274 5.45021 10.5218 5.78545 10.9363 6.2075L13 8.32L15.0556 6.22375C15.4686 5.79636 15.9635 5.45664 16.5107 5.2249C17.058 4.99315 17.6463 4.87415 18.2406 4.875ZM18.2406 3.25C17.4327 3.24932 16.6328 3.40995 15.8877 3.72247C15.1427 4.035 14.4675 4.49313 13.9019 5.07L13 5.98L12.0981 5.07C11.5318 4.49417 10.8565 4.03683 10.1116 3.72466C9.36665 3.41248 8.56705 3.2517 7.75938 3.2517C6.9517 3.2517 6.1521 3.41248 5.4072 3.72466C4.66229 4.03683 3.98698 4.49417 3.42063 5.07C2.2684 6.24295 1.6228 7.82142 1.6228 9.46563C1.6228 11.1098 2.2684 12.6883 3.42063 13.8613L13 23.5625L22.5794 13.8613C23.7316 12.6883 24.3772 11.1098 24.3772 9.46563C24.3772 7.82142 23.7316 6.24295 22.5794 5.07C22.0132 4.49386 21.3379 4.03621 20.593 3.72374C19.8481 3.41127 19.0484 3.25022 18.2406 3.25Z" fill="#696C75"/>
</svg>
