<svg width="23" height="26" viewBox="0 0 23 26" fill="none" xmlns="http://www.w3.org/2000/svg">
<g clip-path="url(#clip0_1865_199)">
<path d="M20.3125 1.625H2.4375C1.0918 1.625 0 2.7168 0 4.0625V21.9375C0 23.2832 1.0918 24.375 2.4375 24.375H20.3125C21.6582 24.375 22.75 23.2832 22.75 21.9375V4.0625C22.75 2.7168 21.6582 1.625 20.3125 1.625ZM6.44922 19.5254C6.16992 20.0129 5.54531 20.1754 5.06289 19.8961C4.57539 19.6168 4.41289 18.9922 4.69219 18.5098L5.41836 17.2555C6.23594 17.0066 6.90625 17.1996 7.4293 17.8344L6.44922 19.5254ZM13.5027 16.7883H4.26562C3.70703 16.7883 3.25 16.3313 3.25 15.7727C3.25 15.2141 3.70703 14.757 4.26562 14.757H6.85547L10.1766 9.00859L9.13555 7.21094C8.85625 6.72344 9.02383 6.10391 9.50625 5.82461C9.99375 5.54531 10.6133 5.71289 10.8926 6.19531L11.3445 6.97734L11.7965 6.19531C12.0758 5.70781 12.7004 5.54531 13.1828 5.82461C13.6703 6.10391 13.8328 6.72852 13.5535 7.21094L9.19648 14.757H12.35C13.3758 14.757 13.9496 15.9605 13.5027 16.7883ZM18.4844 16.7883H17.0117L18.007 18.5098C18.2863 18.9973 18.1187 19.6168 17.6363 19.8961C17.1488 20.1754 16.5293 20.0078 16.25 19.5254C14.5793 16.6359 13.3301 14.4625 12.4922 13.0203C11.6441 11.5477 12.2484 10.075 12.8527 9.57734C13.518 10.7301 14.5133 12.4566 15.8438 14.757H18.4844C19.043 14.757 19.5 15.2141 19.5 15.7727C19.5 16.3363 19.043 16.7883 18.4844 16.7883Z" fill="#F5F5F5"/>
</g>
<defs>
<clipPath id="clip0_1865_199">
<rect width="22.75" height="26" fill="white"/>
</clipPath>
</defs>
</svg>
