<svg width="26" height="26" viewBox="0 0 26 26" fill="none" xmlns="http://www.w3.org/2000/svg">
<g clip-path="url(#clip0_1796_397)">
<g filter="url(#filter0_f_1796_397)">
<path d="M18.72 11.7H11.18C10.4624 11.7 10.4 12.2811 10.4 13C10.4 13.7189 10.4624 14.3 11.18 14.3H18.72C19.4376 14.3 19.5 13.7189 19.5 13C19.5 12.2811 19.4376 11.7 18.72 11.7ZM21.32 18.2H11.18C10.4624 18.2 10.4 18.7811 10.4 19.5C10.4 20.2189 10.4624 20.8 11.18 20.8H21.32C22.0376 20.8 22.1 20.2189 22.1 19.5C22.1 18.7811 22.0376 18.2 21.32 18.2ZM11.18 7.79995H21.32C22.0376 7.79995 22.1 7.21885 22.1 6.49995C22.1 5.78105 22.0376 5.19995 21.32 5.19995H11.18C10.4624 5.19995 10.4 5.78105 10.4 6.49995C10.4 7.21885 10.4624 7.79995 11.18 7.79995ZM7.02003 11.7H4.68002C3.96242 11.7 3.90002 12.2811 3.90002 13C3.90002 13.7189 3.96242 14.3 4.68002 14.3H7.02003C7.73763 14.3 7.80002 13.7189 7.80002 13C7.80002 12.2811 7.73763 11.7 7.02003 11.7ZM7.02003 18.2H4.68002C3.96242 18.2 3.90002 18.7811 3.90002 19.5C3.90002 20.2189 3.96242 20.8 4.68002 20.8H7.02003C7.73763 20.8 7.80002 20.2189 7.80002 19.5C7.80002 18.7811 7.73763 18.2 7.02003 18.2ZM7.02003 5.19995H4.68002C3.96242 5.19995 3.90002 5.78105 3.90002 6.49995C3.90002 7.21885 3.96242 7.79995 4.68002 7.79995H7.02003C7.73763 7.79995 7.80002 7.21885 7.80002 6.49995C7.80002 5.78105 7.73763 5.19995 7.02003 5.19995Z" fill="#6249DE"/>
</g>
<path d="M18.72 11.7H11.18C10.4624 11.7 10.4 12.2811 10.4 13C10.4 13.7189 10.4624 14.3 11.18 14.3H18.72C19.4376 14.3 19.5 13.7189 19.5 13C19.5 12.2811 19.4376 11.7 18.72 11.7ZM21.32 18.2H11.18C10.4624 18.2 10.4 18.7811 10.4 19.5C10.4 20.2189 10.4624 20.8 11.18 20.8H21.32C22.0376 20.8 22.1 20.2189 22.1 19.5C22.1 18.7811 22.0376 18.2 21.32 18.2ZM11.18 7.79995H21.32C22.0376 7.79995 22.1 7.21885 22.1 6.49995C22.1 5.78105 22.0376 5.19995 21.32 5.19995H11.18C10.4624 5.19995 10.4 5.78105 10.4 6.49995C10.4 7.21885 10.4624 7.79995 11.18 7.79995ZM7.02003 11.7H4.68002C3.96242 11.7 3.90002 12.2811 3.90002 13C3.90002 13.7189 3.96242 14.3 4.68002 14.3H7.02003C7.73763 14.3 7.80002 13.7189 7.80002 13C7.80002 12.2811 7.73763 11.7 7.02003 11.7ZM7.02003 18.2H4.68002C3.96242 18.2 3.90002 18.7811 3.90002 19.5C3.90002 20.2189 3.96242 20.8 4.68002 20.8H7.02003C7.73763 20.8 7.80002 20.2189 7.80002 19.5C7.80002 18.7811 7.73763 18.2 7.02003 18.2ZM7.02003 5.19995H4.68002C3.96242 5.19995 3.90002 5.78105 3.90002 6.49995C3.90002 7.21885 3.96242 7.79995 4.68002 7.79995H7.02003C7.73763 7.79995 7.80002 7.21885 7.80002 6.49995C7.80002 5.78105 7.73763 5.19995 7.02003 5.19995Z" fill="#6249DE"/>
</g>
<defs>
<filter id="filter0_f_1796_397" x="-0.0999756" y="1.19995" width="26.2" height="23.6" filterUnits="userSpaceOnUse" color-interpolation-filters="sRGB">
<feFlood flood-opacity="0" result="BackgroundImageFix"/>
<feBlend mode="normal" in="SourceGraphic" in2="BackgroundImageFix" result="shape"/>
<feGaussianBlur stdDeviation="2" result="effect1_foregroundBlur_1796_397"/>
</filter>
<clipPath id="clip0_1796_397">
<rect width="26" height="26" fill="white"/>
</clipPath>
</defs>
</svg>
