<svg width="16" height="16" viewBox="0 0 16 16" fill="none" xmlns="http://www.w3.org/2000/svg">
<path d="M14.2733 7.72004L8.27331 1.72004C8.03331 1.48004 7.69998 1.33337 7.33331 1.33337H2.66665C1.93331 1.33337 1.33331 1.93337 1.33331 2.66671V7.33337C1.33331 7.70004 1.47998 8.03337 1.72665 8.28004L7.72665 14.28C7.96665 14.52 8.29998 14.6667 8.66665 14.6667C9.03331 14.6667 9.36665 14.52 9.60665 14.2734L14.2733 9.60671C14.52 9.36671 14.6666 9.03337 14.6666 8.66671C14.6666 8.30004 14.5133 7.96004 14.2733 7.72004ZM8.66665 13.34L2.66665 7.33337V2.66671H7.33331V2.66004L13.3333 8.66004L8.66665 13.34Z" fill="#FEB34E"/>
<path d="M4.33331 5.33337C4.8856 5.33337 5.33331 4.88566 5.33331 4.33337C5.33331 3.78109 4.8856 3.33337 4.33331 3.33337C3.78103 3.33337 3.33331 3.78109 3.33331 4.33337C3.33331 4.88566 3.78103 5.33337 4.33331 5.33337Z" fill="#FEB34E"/>
</svg>
