<svg width="20" height="22" viewBox="0 0 20 22" fill="none" xmlns="http://www.w3.org/2000/svg">
<path d="M11.9908 3.20953C12.1242 2.58702 11.6497 2 11.013 2H7.78078C7.32191 2 6.92193 2.3123 6.81063 2.75746L4.31063 12.7575C4.15285 13.3886 4.63021 14 5.28078 14H7.5C8.05228 14 8.5 14.4477 8.5 15V22L15.1348 10.4997C15.5194 9.83306 15.0382 9 14.2686 9H11.987C11.3503 9 10.8758 8.41298 11.0092 7.79047L11.9908 3.20953Z" fill="white"/>
<path d="M11.9908 3.20953C12.1242 2.58702 11.6497 2 11.013 2H7.78078C7.32191 2 6.92193 2.3123 6.81063 2.75746L4.31063 12.7575C4.15285 13.3886 4.63021 14 5.28078 14H7.5C8.05228 14 8.5 14.4477 8.5 15V22L15.1348 10.4997C15.5194 9.83306 15.0382 9 14.2686 9H11.987C11.3503 9 10.8758 8.41298 11.0092 7.79047L11.9908 3.20953Z" fill="url(#paint0_linear_1865_158)"/>
<defs>
<linearGradient id="paint0_linear_1865_158" x1="10" y1="2" x2="10" y2="22" gradientUnits="userSpaceOnUse">
<stop stop-color="#FF0000"/>
<stop offset="1" stop-color="#FFD600"/>
</linearGradient>
</defs>
</svg>
