<svg width="32" height="32" viewBox="0 0 32 32" fill="none" xmlns="http://www.w3.org/2000/svg">
<g clip-path="url(#clip0_35_99)">
<path d="M11.979 3.46389V26.8599L17.198 28.5409V8.91689C17.198 7.99389 17.605 7.37989 18.261 7.59289C19.105 7.83789 19.272 8.68189 19.272 9.60389V17.4369C22.528 19.0259 25.089 17.4319 25.089 13.2339C25.089 8.91689 23.589 6.99889 19.173 5.46289C17.428 4.86289 14.198 3.87889 11.985 3.46289L11.979 3.46389ZM18.188 25.1199L26.584 22.0829C27.536 21.7399 27.683 21.2509 26.912 20.9949C26.131 20.7399 24.729 20.8069 23.765 21.1559L18.161 23.1559V19.9729L18.478 19.8639C18.478 19.8639 20.082 19.3029 22.363 19.0409C24.624 18.8019 27.411 19.0819 29.614 19.9209C32.078 20.7239 32.338 21.8849 31.713 22.6879C31.093 23.4839 29.552 24.0679 29.552 24.0679L18.161 28.2079V25.1449L18.188 25.1199ZM2.41202 24.8029C-0.124982 24.0739 -0.540982 22.5789 0.609018 21.7029C1.67702 20.9269 3.48402 20.3029 3.48402 20.3029L10.973 17.6199V20.7029L5.60902 22.6669C4.66602 23.0269 4.51002 23.5109 5.29202 23.7659C6.07302 24.0269 7.47302 23.9699 8.41202 23.6099L10.995 22.6669V25.4319C10.839 25.4689 10.656 25.4889 10.474 25.5309C7.89102 25.9699 5.15102 25.7919 2.42702 24.8909L2.41202 24.8029Z" fill="#0370D1"/>
</g>
<defs>
<clipPath id="clip0_35_99">
<rect width="32" height="32" fill="white"/>
</clipPath>
</defs>
</svg>
