<svg width="20" height="20" viewBox="0 0 20 20" fill="none" xmlns="http://www.w3.org/2000/svg">
<path fill-rule="evenodd" clip-rule="evenodd" d="M4.99996 18.3333H15C16.9166 18.3333 18.3333 16.8333 18.3333 15V5.00001C18.3333 3.16667 16.8333 1.66667 15 1.66667H4.99996C3.16662 1.66667 1.66663 3.16667 1.66663 5.00001V15C1.66663 16.8333 3.16662 18.3333 4.99996 18.3333ZM6.24999 10.8334C6.24999 10.6032 6.06344 10.4167 5.83332 10.4167C5.6032 10.4167 5.41666 10.6032 5.41666 10.8334V14.1667C5.41666 14.3968 5.6032 14.5834 5.83332 14.5834C6.06344 14.5834 6.24999 14.3968 6.24999 14.1667V10.8334ZM9.99998 5.41668C10.2301 5.41668 10.4166 5.60323 10.4166 5.83335V14.1667C10.4166 14.3968 10.2301 14.5834 9.99998 14.5834C9.76986 14.5834 9.58331 14.3968 9.58331 14.1667V5.83335C9.58331 5.60323 9.76986 5.41668 9.99998 5.41668ZM14.5833 8.33335C14.5833 8.10323 14.3968 7.91668 14.1666 7.91668C13.9365 7.91668 13.75 8.10323 13.75 8.33335V14.1667C13.75 14.3968 13.9365 14.5834 14.1666 14.5834C14.3968 14.5834 14.5833 14.3968 14.5833 14.1667V8.33335Z" fill="url(#paint0_linear_70_1945)"/>
<defs>
<linearGradient id="paint0_linear_70_1945" x1="9.99996" y1="1.66667" x2="9.99996" y2="18.3333" gradientUnits="userSpaceOnUse">
<stop stop-color="#FF5A26"/>
<stop offset="1" stop-color="#EE30FF"/>
</linearGradient>
</defs>
</svg>
