<svg width="26" height="26" viewBox="0 0 26 26" fill="none" xmlns="http://www.w3.org/2000/svg">
<g opacity="0.9" clip-path="url(#clip0_39_84)">
<path d="M12.9788 0C6.15302 0 0.554084 5.26419 0.0251465 11.9551L6.99071 14.8371C7.60181 14.4203 8.32451 14.1977 9.06421 14.1984C9.13165 14.1984 9.1999 14.2025 9.26733 14.2025L12.3654 9.71669V9.65331C12.3654 6.94931 14.5616 4.75312 17.2656 4.75312C19.9696 4.75312 22.1698 6.95337 22.1698 9.65737C22.1681 10.9572 21.6507 12.2032 20.7313 13.1219C19.8118 14.0406 18.5654 14.5569 17.2656 14.5576H17.1559L12.7375 17.7101C12.7375 17.7694 12.7416 17.8246 12.7416 17.8839C12.7416 19.9152 11.0995 21.5613 9.06827 21.5613C7.29946 21.5613 5.80121 20.2914 5.45833 18.6079L0.473646 16.5425C2.01821 22.0017 7.02483 26.0008 12.9788 26.0008C20.1556 26.0008 25.9748 20.1825 25.9748 13.0008C25.9748 5.81912 20.1565 0.0008125 12.9788 0.0008125V0ZM8.16721 19.7283L6.57146 19.0678C6.86534 19.6783 7.37257 20.1601 7.9974 20.4222C8.67372 20.7022 9.43345 20.7026 10.1101 20.4235C10.7868 20.1443 11.3252 19.6083 11.6073 18.9329C11.7473 18.5986 11.8197 18.2399 11.8204 17.8774C11.8211 17.515 11.7501 17.156 11.6114 16.8212C11.4746 16.4846 11.2719 16.1787 11.0154 15.9214C10.7588 15.6641 10.4534 15.4607 10.1172 15.3229C9.46938 15.0523 8.74251 15.0401 8.08596 15.2888L9.73208 15.9705C10.7688 16.406 11.2596 17.5955 10.8281 18.6322C10.3967 19.669 9.20315 20.1598 8.1664 19.7283H8.16721ZM20.5326 9.64844C20.5318 8.78293 20.1879 7.95305 19.5762 7.34066C18.9646 6.72827 18.1352 6.38331 17.2696 6.38138C16.4032 6.38138 15.5722 6.72558 14.9595 7.33828C14.3468 7.95097 14.0026 8.78196 14.0026 9.64844C14.0026 10.5149 14.3468 11.3459 14.9595 11.9586C15.5722 12.5713 16.4032 12.9155 17.2696 12.9155C18.1354 12.9142 18.9652 12.5695 19.5769 11.9569C20.1887 11.3444 20.5324 10.5141 20.5326 9.64844V9.64844ZM14.824 9.64437C14.824 8.28587 15.9201 7.18981 17.2745 7.18981C18.629 7.18981 19.7331 8.28587 19.7331 9.64437C19.7331 10.9988 18.629 12.0989 17.2745 12.0989C15.9201 12.0989 14.824 10.9988 14.824 9.64437V9.64437Z" fill="white"/>
</g>
<defs>
<clipPath id="clip0_39_84">
<rect width="26" height="26" fill="white"/>
</clipPath>
</defs>
</svg>
