<svg width="24" height="24" viewBox="0 0 24 24" fill="none" xmlns="http://www.w3.org/2000/svg">
<path d="M14.1757 24H17.8515C21.2265 24 24 21.2265 24 17.8515V6.1485C24 2.7735 21.2265 0 17.8515 0H14.1015C14.0273 0 13.9493 0.07425 13.9493 0.1485V23.8515C13.9493 23.9258 14.0235 24 14.1757 24ZM18.75 10.8008C20.1015 10.8008 21.1485 11.9258 21.1485 13.1993C21.1485 14.5508 20.0235 15.5978 18.75 15.5978C17.3985 15.5978 16.3515 14.5508 16.3515 13.1993C16.2735 11.8515 17.3985 10.8008 18.75 10.8008ZM11.3985 0H6.1485C2.7735 0 0 2.7735 0 6.1485V17.8515C0 21.2265 2.7735 24 6.1485 24H11.3985C11.4727 24 11.5508 23.9258 11.5508 23.8515V0.1485C11.5508 0.07425 11.4765 0 11.3985 0ZM9.67575 22.0507H6.1485C5.5968 22.0516 5.05034 21.9436 4.54047 21.7329C4.03059 21.5222 3.56731 21.2129 3.1772 20.8228C2.78709 20.4327 2.47781 19.9694 2.26709 19.4595C2.05637 18.9497 1.94836 18.4032 1.94925 17.8515V6.1485C1.94836 5.5968 2.05637 5.05034 2.26709 4.54047C2.47781 4.03059 2.78709 3.56731 3.1772 3.1772C3.56731 2.78709 4.03059 2.47781 4.54047 2.26709C5.05034 2.05637 5.5968 1.94836 6.1485 1.94925H9.6015L9.67575 22.0507ZM3.75 7.19925C3.75 8.47275 4.7265 9.44925 6 9.44925C7.2735 9.44925 8.25 8.47275 8.25 7.19925C8.25 5.92575 7.2735 4.94925 6 4.94925C4.7265 4.94925 3.75 5.92575 3.75 7.19925Z" fill="#DF0100"/>
</svg>
