<svg width="30" height="18" viewBox="0 0 30 18" fill="none" xmlns="http://www.w3.org/2000/svg">
<path d="M21.3561 13.3323C21.115 13.3323 20.8794 13.2609 20.679 13.127C20.4785 12.993 20.3223 12.8027 20.2301 12.58C20.1378 12.3573 20.1137 12.1122 20.1607 11.8758C20.2077 11.6394 20.3238 11.4223 20.4943 11.2518C20.6647 11.0814 20.8819 10.9653 21.1183 10.9183C21.3547 10.8712 21.5998 10.8954 21.8225 10.9876C22.0451 11.0799 22.2355 11.2361 22.3694 11.4365C22.5033 11.6369 22.5748 11.8726 22.5748 12.1136C22.5748 12.4368 22.4464 12.7468 22.2178 12.9754C21.9893 13.2039 21.6793 13.3323 21.3561 13.3323ZM7.89395 13.3323C7.6529 13.3323 7.41727 13.2609 7.21684 13.127C7.01642 12.993 6.86021 12.8027 6.76797 12.58C6.67572 12.3573 6.65159 12.1122 6.69861 11.8758C6.74564 11.6394 6.86171 11.4223 7.03216 11.2518C7.2026 11.0814 7.41976 10.9653 7.65618 10.9183C7.89259 10.8712 8.13764 10.8954 8.36034 10.9876C8.58304 11.0799 8.77338 11.2361 8.9073 11.4365C9.04122 11.6369 9.11269 11.8726 9.11269 12.1136C9.11269 12.4368 8.98429 12.7468 8.75573 12.9754C8.52717 13.2039 8.21718 13.3323 7.89395 13.3323ZM21.7928 5.99547L24.2272 1.78063C24.266 1.72291 24.2924 1.65785 24.305 1.58948C24.3176 1.52111 24.316 1.45089 24.3003 1.38316C24.2846 1.31544 24.2552 1.25166 24.2139 1.19576C24.1725 1.13987 24.1202 1.09306 24.06 1.05822C23.9999 1.02339 23.9332 1.00128 23.8641 0.993259C23.7951 0.985239 23.7251 0.991481 23.6586 1.0116C23.592 1.03172 23.5303 1.06528 23.4773 1.11021C23.4243 1.15515 23.381 1.21049 23.3502 1.27282L20.8853 5.542C18.9164 4.65893 16.7829 4.2024 14.625 4.2024C12.4671 4.2024 10.3336 4.65893 8.36469 5.542L5.89977 1.27282C5.86898 1.21049 5.82573 1.15515 5.77269 1.11021C5.71965 1.06528 5.65795 1.03172 5.59141 1.0116C5.52488 0.991481 5.45491 0.985239 5.38586 0.993259C5.31681 1.00128 5.25015 1.02339 5.18999 1.05822C5.12983 1.09306 5.07747 1.13987 5.03614 1.19576C4.99481 1.25166 4.9654 1.31544 4.94972 1.38316C4.93404 1.45089 4.93244 1.52111 4.94501 1.58948C4.95757 1.65785 4.98404 1.72291 5.02277 1.78063L7.45723 5.99547C3.27691 8.26895 0.418437 12.5006 0 17.5H29.25C28.8316 12.5006 25.9726 8.26895 21.7928 5.99547Z" fill="#3DDB3D"/>
</svg>
